<svg xmlns="http://www.w3.org/2000/svg" viewBox="0 0 48 48"><g data-name="Layer 1"><path d="M44.12 27.76v3.88a1.05 1.05 0 01-1.06 1.06H5a1.06 1.06 0 01-1.1-1.06v-3.88z" fill="#e3e3e3" opacity=".5"/><path d="M32.25 38.79v.75a.2.2 0 01-.22.17H16a.21.21 0 01-.23-.18v-.74h.06A5.69 5.69 0 0019.3 36a5.56 5.56 0 00.3-.65 7.49 7.49 0 00.46-2.46v-.29H28v.26a7.49 7.49 0 00.46 2.46 5.56 5.56 0 00.3.65 5.69 5.69 0 003.46 2.82z" fill="#acacac"/><path d="M28.44 35.32a7.49 7.49 0 01-.44-2.46v-5.2h-7.94v5.2a7.49 7.49 0 01-.46 2.46 5.56 5.56 0 01-.3.65h9.44a5.56 5.56 0 01-.3-.65zM24 31.57a1.34 1.34 0 111.34-1.34A1.34 1.34 0 0124 31.57z" fill="#919191"/><path d="M44 6.25v21.4H3.78V6.87a1.07 1.07 0 011.07-1.06h38.71a.45.45 0 01.44.44z" fill="#e2e2e2" fill-opacity=".3"/><path d="M44.12 6.17v25.31a1.05 1.05 0 01-1.06 1.06H5a1.06 1.06 0 01-1.1-1.06V6.79A1.07 1.07 0 015 5.73h38.68a.44.44 0 01.44.44z" stroke="#c8c8c8" stroke-miterlimit="10" stroke-width=".94" fill="none"/><path fill="#767272" fill-opacity=".1" stroke="#cccbcb" stroke-linejoin="round" stroke-width=".72" d="M4.02 27.57h39.99"/><path d="M33.34 16.47h-9.8v-.76h9.06l-.83-.83a.39.39 0 00-.27-.11h-8v-.48h-1.03a4.24 4.24 0 10.07 5h1V19l.66-.66.67.66 1-1 1 1H27l1-1 1 1 1-1 1 1h.31a.39.39 0 00.27-.11l1.48-1.48a.71.71 0 00.28-.94zm-15.76 1.45a1.06 1.06 0 110-2.12 1.06 1.06 0 110 2.12z" fill="#498bca"/><path fill="none" d="M.04.04h47.93v47.93H.04z"/></g></svg>