<svg xmlns="http://www.w3.org/2000/svg" viewBox="0 0 48 48"><g data-name="Layer 1"><path d="M35.3 15.37a12 12 0 01-2.66 7.56 126.53 126.53 0 00-5.13 11.87h-7.25a124.66 124.66 0 00-5.16-11.93 12.3 12.3 0 01-1.53-2.51 12 12 0 01-1.07-5A11.6 11.6 0 0123.9 3.58a11.6 11.6 0 0111.4 11.79z" fill="#e3e3e3" opacity=".5"/><path fill="#498bca" d="M27.7 43.35v-7.08a.27.27 0 00-.26-.27h-7.08a.27.27 0 00-.27.27v7.08a.27.27 0 00.27.27h7.08a.27.27 0 00.26-.27z"/><path fill="#498bca" d="M26.77 43.6l-.15.61c-.05.24-.15.32-.35.32h-4.75c-.19 0-.25-.1-.35-.32L21 43.6z"/><path fill="#498bca" d="M27.7 43.35v-7.08a.27.27 0 00-.26-.27h-7.08a.27.27 0 00-.27.27v7.08a.27.27 0 00.27.27h7.08a.27.27 0 00.26-.27z"/><path fill="none" stroke="#498bca" stroke-miterlimit="10" d="M19.2 37.71h.98m-.98 2.09h.98m-.98 2.1h.98m7.44-4.19h.97m-.97 2.09h.97m-.97 2.1h.97"/><rect x="22.06" y="37.81" width="3.67" height="3.67" rx=".4" stroke="#fff" stroke-width=".6" stroke-miterlimit="10" fill="none"/><path fill="none" stroke-miterlimit="10" stroke="#c8c8c8" d="M21.78 34.8V20.72l-2.74-4.52m7.09 18.6V20.72l2.74-4.52"/><circle fill="#c8c8c8" cx="18.92" cy="16.44" r="1.49"/><circle fill="#c8c8c8" cx="28.87" cy="16.44" r="1.49"/><path stroke="#acacac" stroke-miterlimit="10" fill="none" d="M23.9 17.13V34.8"/><circle cx="23.9" cy="17.35" r="1.14" fill="#acacac"/><path fill="none" stroke-miterlimit="10" stroke="#c8c8c8" d="M35.3 15.37a12 12 0 01-2.66 7.56 126.53 126.53 0 00-5.13 11.87h-7.25a121.93 121.93 0 00-5.16-11.93 12.57 12.57 0 01-1.53-2.51 12 12 0 01-1.07-5A11.6 11.6 0 0123.9 3.58a11.6 11.6 0 0111.4 11.79z"/><path fill="none" d="M.04.04h47.93v47.93H.04z"/></g></svg>