<svg xmlns="http://www.w3.org/2000/svg" viewBox="0 0 48 48"><g data-name="Layer 1"><ellipse fill="none" stroke="#c8c8c8" stroke-miterlimit="10" stroke-width=".94" cx="23.9" cy="23.91" rx="3.77" ry="20.34" transform="matrix(.5 -.87 .87 .5 -8.76 32.65)"/><ellipse fill="none" stroke="#c8c8c8" stroke-miterlimit="10" stroke-width=".94" cx="23.9" cy="23.91" rx="20.34" ry="3.77" transform="matrix(.87 -.5 .5 .87 -8.75 15.15)"/><ellipse fill="none" stroke="#c8c8c8" stroke-miterlimit="10" stroke-width=".94" cx="23.9" cy="23.91" rx="3.77" ry="20.34"/><circle fill="#acacac" cx="21.63" cy="6.75" r="1.5"/><circle fill="#acacac" cx="38.45" cy="29.48" r="1.5"/><circle fill="#acacac" cx="10.96" cy="33.87" r="1.5"/><path d="M31.29 29.82l-2.66-4.6-2.58-4.46v-5.07h.15a.28.28 0 00.27-.28v-.48a.28.28 0 00-.27-.28h-4.81a.28.28 0 00-.27.28v.48a.28.28 0 00.27.28h.15v5.07L19 25.22l-2.66 4.6a2.52 2.52 0 002.18 3.78h10.59a2.52 2.52 0 002.18-3.78z" fill="#498bca"/><path fill="none" d="M0 .03h48v48H0z"/></g></svg>