<svg xmlns="http://www.w3.org/2000/svg" viewBox="0 0 48 48"><g data-name="Layer 1"><path stroke="#e3e3e3" fill="none" stroke-miterlimit="10" stroke-width=".94" d="M10.8 16.55c0-.62 5.91-1.12 13.21-1.12s13.21.5 13.21 1.12M10.8 29.35c0-.61 5.91-1.11 13.21-1.11s13.21.5 13.21 1.11M10.8 41.37c0-.61 5.91-1.11 13.21-1.11s13.21.5 13.21 1.11"/><path d="M37.25 4.76v37.68c0 .62-5.91 1.12-13.21 1.12s-13.21-.5-13.21-1.12V4.76c0 .61 5.92 1.11 13.21 1.11s13.21-.5 13.21-1.11z" fill="#e3e3e3" opacity=".5"/><ellipse fill="#c8c8c8" cx="24.03" cy="4.76" rx="13.21" ry="1.11"/><path fill="none" stroke-miterlimit="10" stroke-width=".94" stroke="#c8c8c8" d="M37.25 30.2c0 .62-5.91 1.12-13.21 1.12s-13.21-.5-13.21-1.12m26.39-12.83c0 .61-5.92 1.11-13.21 1.11S10.8 18 10.8 17.37"/><ellipse fill="none" stroke-miterlimit="10" stroke-width=".94" stroke="#c8c8c8" cx="24.01" cy="4.78" rx="13.21" ry="1.11"/><path fill="none" stroke-miterlimit="10" stroke-width=".94" stroke="#c8c8c8" d="M37.25 4.76v37.68c0 .62-5.92 1.12-13.22 1.12s-13.21-.5-13.21-1.12V4.76c0 .61 5.92 1.11 13.21 1.11s13.22-.5 13.22-1.11z"/><circle fill="#c8c8c8" cx="33.52" cy="14.66" r=".69"/><circle fill="#c8c8c8" cx="33.52" cy="27.55" r=".69"/><circle fill="#c8c8c8" cx="33.52" cy="40.12" r=".69"/><path d="M33.52 26.08v-2.64a.38.38 0 00-.38-.38h-1.72a.37.37 0 01-.36-.27 7.2 7.2 0 00-.66-1.59.38.38 0 01.06-.45l1.22-1.22a.37.37 0 000-.53l-1.87-1.87a.38.38 0 00-.54 0l-1.21 1.21a.38.38 0 01-.45.07 6.83 6.83 0 00-1.6-.66.39.39 0 01-.27-.37v-1.72a.38.38 0 00-.38-.37h-2.64a.38.38 0 00-.38.37v1.72a.39.39 0 01-.27.37 6.75 6.75 0 00-1.59.66.38.38 0 01-.45-.07l-1.22-1.21a.37.37 0 00-.53 0L16.4 19a.39.39 0 000 .53l1.22 1.22a.36.36 0 01.06.45 7.17 7.17 0 00-.68 1.59.39.39 0 01-.37.27h-1.69a.38.38 0 00-.38.38v2.64a.38.38 0 00.38.38h1.72a.38.38 0 01.37.28 7 7 0 00.8 1.83L16.4 30a.4.4 0 000 .54l1.88 1.87a.37.37 0 00.53 0L20 31.19a.37.37 0 01.44-.07 7.49 7.49 0 001.6.66.37.37 0 01.27.36v1.72a.38.38 0 00.38.38h2.64a.38.38 0 00.38-.38v-1.72a.37.37 0 01.27-.36 7.28 7.28 0 001.6-.66.38.38 0 01.45.07l1.21 1.21a.38.38 0 00.54 0l1.87-1.87a.38.38 0 000-.54l-1.22-1.21a.38.38 0 01-.06-.45 7.41 7.41 0 00.66-1.59.36.36 0 01.36-.28h1.72a.38.38 0 00.41-.38zm-6.44-.73v.08a3.06 3.06 0 01-.44 1 3.14 3.14 0 01-2 1.34 3.21 3.21 0 01-.63.06 3.36 3.36 0 01-.63-.06 2.9 2.9 0 01-1.07-.45 3 3 0 01-.89-.89 3.07 3.07 0 01-.42-1.04 2.59 2.59 0 01-.07-.63 2.56 2.56 0 01.07-.62 3.06 3.06 0 011.33-2 3.07 3.07 0 011.07-.44 3.38 3.38 0 01.63-.07 3.2 3.2 0 01.63.07 3.07 3.07 0 011.07.44 3 3 0 01.89.89 3.15 3.15 0 01.44 1v.09z" fill="#498bca"/><path fill="none" d="M0 .04h48v48H0z"/><path fill="none" d="M.01.04h48v48h-48z"/></g></svg>