<svg xmlns="http://www.w3.org/2000/svg" viewBox="0 0 48 48"><g data-name="Layer 1"><path d="M32.18 42.06v.75A.2.2 0 0132 43H16a.21.21 0 01-.23-.18v-.74h.05a5.76 5.76 0 003.77-3.48 7.49 7.49 0 00.41-2.48v-.26h7.9a2.17 2.17 0 000 .26 7.24 7.24 0 00.46 2.46 4.39 4.39 0 00.29.66 5.72 5.72 0 003.47 2.82z" fill="#acacac"/><path d="M28.37 38.58a7.24 7.24 0 01-.46-2.46v-5.21H20v5.21a7.49 7.49 0 01-.46 2.46 5.73 5.73 0 01-.3.66h9.45a4.39 4.39 0 01-.32-.66zm-4.43-3.75a1.34 1.34 0 111.34-1.34 1.34 1.34 0 01-1.34 1.34z" fill="#919191"/><path d="M44.07 9.3v21.43H3.79V9.92a1.06 1.06 0 011.07-1.06h38.77a.44.44 0 01.44.44z" fill="#e2e2e2" fill-opacity=".3"/><path d="M44.07 30.82v3.89A1.05 1.05 0 0143 35.77H4.86a1.06 1.06 0 01-1.07-1.06v-3.89z" fill="#e3e3e3" opacity=".5"/><path d="M44.07 9.39v25.35A1.05 1.05 0 0143 35.8H4.86a1.06 1.06 0 01-1.07-1.06V10a1.07 1.07 0 011.07-1h38.77a.44.44 0 01.44.39z" stroke-miterlimit="10" stroke="#c8c8c8" stroke-width=".94" fill="none"/><path fill="#767272" fill-opacity=".1" stroke="#cccbcb" stroke-linejoin="round" stroke-width=".72" d="M3.91 30.82h40.05"/><path fill="none" stroke-miterlimit="10" stroke="#498bca" stroke-width="1.5" d="M19.22 24.71l-4.45-4.45 4.45-4.45m9.2 0l4.45 4.45-4.45 4.45m-3.15-10.38L22.24 26.2"/><path fill="none" d="M0 0h48v48H0z"/></g></svg>