<svg version="1.1" id="Layer_1" xmlns="http://www.w3.org/2000/svg" xmlns:xlink="http://www.w3.org/1999/xlink" x="0" y="0" viewBox="0 0 48 48" xml:space="preserve"><style>.st0{fill:none}.st1{fill:#e3e3e3}</style><path class="st0" d="M0 0h48v48H0z"/><path class="st0" d="M0 0h48v48H0z"/><circle class="st1" cx="17.8" cy="17.2" r="13.1"/><circle class="st1" cx="31.4" cy="30.8" r="13.1"/><path d="M23.1 16.1H22c-.1 0-.1-.1-.2-.1-.1-.3-.2-.6-.4-.9v-.2l.8-.8c.1-.1.1-.2 0-.3l-1-1c-.1-.1-.2-.1-.3 0l-.8.8c-.1.1-.1.1-.2 0-.3-.2-.6-.3-.9-.4-.1 0-.1-.1-.1-.2v-1.1c0-.1-.1-.2-.2-.2h-1.5c-.1 0-.2.1-.2.2V13c0 .1-.1.2-.1.2-.3.1-.6.2-.9.4h-.2l-.8-.8c-.1-.1-.2-.1-.3 0l-1 1c-.1.1-.1.2 0 .3l.7.7c.1.1.1.1 0 .2-.2.3-.3.6-.4.9 0 .1-.1.1-.2.1h-1c-.1 0-.2.1-.2.2v1.5c0 .1.1.2.2.2h1c.1 0 .1.1.2.1.1.4.2.7.4 1v.2l-.7.7c-.1.1-.1.2 0 .3l1 1c.1.1.2.1.3 0l.7-.7c.1-.1.1-.1.2 0 .3.2.6.3 1 .4.1 0 .1.1.1.2v1c0 .1.1.2.2.2h1.5c.1 0 .2-.1.2-.2v-1c0-.1.1-.1.1-.2.3-.1.7-.2.9-.4h.2l.7.7c.1.1.2.1.3 0l1-1c.1-.1.1-.2 0-.3l-.8-.8c-.1-.1-.1-.1 0-.2.2-.3.3-.6.4-.9 0-.1.1-.1.2-.1H23c.1 0 .2-.1.2-.2v-1.5c.1 0 0-.1-.1-.1zm-5.2 2.8c-1 0-1.8-.8-1.8-1.8s.8-1.8 1.8-1.8 1.8.8 1.8 1.8-.8 1.8-1.8 1.8z" fill="#4c8bc8"/><path d="M38.6 23.6c-1.4-1.4-3.2-2.4-5.2-2.8l.3-1.7-2.6 1.9 1.8 2.6.3-1.7c1.8.4 3.3 1.2 4.6 2.5 3.5 3.5 3.5 9.3 0 12.9-1.7 1.7-4 2.7-6.4 2.7s-4.7-.9-6.4-2.7c-1.7-1.7-2.7-4-2.7-6.4s.9-4.7 2.7-6.4c4-4 4-10.4 0-14.3-1.9-1.9-4.5-3-7.2-3s-5.3 1.1-7.2 3c-4 4-4 10.4 0 14.3 1.4 1.4 3.2 2.4 5.2 2.8l-.3 1.7 2.6-1.8-1.8-2.6-.3 1.5c-1.8-.4-3.4-1.2-4.7-2.5-3.5-3.5-3.5-9.3 0-12.9C13.1 9 15.4 8 17.8 8s4.7.9 6.4 2.7c1.7 1.7 2.7 4 2.7 6.4s-.9 4.7-2.7 6.4c-1.9 1.9-3 4.5-3 7.2s1.1 5.3 3 7.2 4.5 3 7.2 3 5.3-1.1 7.2-3c3.9-3.9 3.9-10.4 0-14.3z" fill="#c8c8c8"/><defs><circle id="SVGID_1_" cx="31.5" cy="30.5" r="6.9"/></defs><clipPath id="SVGID_2_"><use xlink:href="#SVGID_1_" overflow="visible"/></clipPath><path d="M32.1 31.8c1.3-.3 2.2-1.4 2.2-2.8 0-1.6-1.3-2.8-2.8-2.8-1.6 0-2.8 1.3-2.8 2.8 0 1.4.9 2.5 2.2 2.8-2.8.3-5 2.7-5 5.5H37c0-2.8-2.1-5.2-4.9-5.5z" clip-path="url(#SVGID_2_)" fill="#4c8bc8"/></svg>