<svg xmlns="http://www.w3.org/2000/svg" viewBox="0 0 48 48"><g data-name="Layer 1"><path fill="#e2e2e2" fill-opacity=".5" d="M6.04 7.26h37.17v25.47H6.04z"/><path stroke-width=".93" stroke-miterlimit="10" stroke="#c8c8c8" fill="none" d="M6.04 7.3h37.17v25.47H6.04z"/><path stroke-width="1.08" stroke="#acacac" stroke-miterlimit="10" fill="none" d="M24.62 33.08v11.38"/><path fill="none" stroke="#c8c8c8" stroke-miterlimit="10" stroke-width="1.08" d="M13.46 44.46l4.67-11.7m17.66 11.7l-4.55-11.38m-6.62-29.8V7.3"/><path fill="#c8c8c8" d="M4.75 5.29h39.71V7.3H4.75z"/><path fill="#c8c8c8" d="M4.75 5.64h39.71v2.01H4.75z"/><path fill="#acacac" d="M4.75 32.41h39.71v2.01H4.75z"/><path fill="#e3e3e3" d="M10.28 14.09h28.68v11.64H10.28z"/><path d="M26.63 26.73c.18-.47 1.63-3.8 2.35-5.45.34-.63.63-1.17.82-1.5a6.54 6.54 0 001-3.55 6.21 6.21 0 10-12.42 0A6.59 6.59 0 0019 19c0 .08.07.15.11.22s.09.17.14.26c.16.29.81 1.43 1.48 2.75.06.13.12.25.17.38.23.51.45 1 .65 1.52.52 1.23.91 2.26 1 2.57v2.1a1.4 1.4 0 001.4 1.4h1.21a1.4 1.4 0 001.4-1.4v-2.07z" fill="#498bca"/><path fill="none" d="M0 0h48v48H0z"/><path fill="none" d="M.01 0h48v48h-48z"/></g></svg>