<svg xmlns="http://www.w3.org/2000/svg" viewBox="0 0 64 64"><path d="M59.13 7H4.88A3.86 3.86 0 001 10.81v33.38A3.86 3.86 0 004.88 48h54.25A3.86 3.86 0 0063 44.19V10.81A3.86 3.86 0 0059.13 7z" fill="#fff"/><path d="M2 8h6v39H2zm54 0h6v39h-6z" fill="#e5e5e5"/><path d="M59.13 7H4.88A3.86 3.86 0 001 10.81v33.38A3.86 3.86 0 004.88 48h54.25A3.86 3.86 0 0063 44.19V10.81A3.86 3.86 0 0059.13 7z" fill="none" stroke="#556a8a" stroke-miterlimit="10" stroke-width="2"/><path d="M45 55H19l-3 2h32l-3-2zm-11.5 0h-3l.5-7h2l.5 7zM23 39v-6a7 7 0 00-1.14-4 4.24 4.24 0 00-.91-1 4.24 4.24 0 00.91-1A7 7 0 0023 23v-6a4.19 4.19 0 011-3 3 3 0 012-1l-.43-1.45a5 5 0 00-3.32 1.5C21.38 14 21 15.29 21 17.53V23a5.1 5.1 0 01-1 2.82 2.16 2.16 0 01-1.6.94L17 27v2l1.44.24a2.16 2.16 0 011.6.94A5.1 5.1 0 0121 33v5.47c0 2.24.38 3.58 1.25 4.48a5 5 0 003.32 1.5L26 43a3 3 0 01-2-1 4.19 4.19 0 01-1-3zm19 0v-6a7 7 0 011.14-4 4.24 4.24 0 01.91-1 4.24 4.24 0 01-.91-1A7 7 0 0142 23v-6a4.19 4.19 0 00-1-3 3 3 0 00-2-1l.43-1.45a5 5 0 013.32 1.5c.88.9 1.25 2.23 1.25 4.48V23a5.1 5.1 0 001 2.82 2.16 2.16 0 001.6.94L48 27v2l-1.44.24a2.16 2.16 0 00-1.6.94A5.1 5.1 0 0044 33v5.47c0 2.24-.38 3.58-1.25 4.48a5 5 0 01-3.32 1.5L39 43a3 3 0 002-1 4.19 4.19 0 001-3z" fill="#556a8a"/></svg>