<svg xmlns="http://www.w3.org/2000/svg" viewBox="0 0 48 48"><g data-name="Layer 1"><path d="M41.26 11.66H6.72A3.29 3.29 0 003.43 15v23.43a3.29 3.29 0 012.82-3.26h34.54a3.3 3.3 0 003.3-3.29V8.4a3.3 3.3 0 01-2.83 3.26z" fill="#e3e3e3" opacity=".5"/><path d="M41.26 11.66H6.72A3.29 3.29 0 003.43 15v23.43a3.29 3.29 0 012.82-3.26h34.54a3.3 3.3 0 003.3-3.29V8.4a3.3 3.3 0 01-2.83 3.26z" stroke="#c8c8c8" stroke-miterlimit="10" stroke-width="1.08" fill="none"/><path fill="#498bca" d="M32.53 31.27L27 18.47a3.88 3.88 0 00-2.26-5.94v-2.09a.94.94 0 10-1.88 0v2.09a3.86 3.86 0 00-2.26 5.94L15 31.33c-.4.88-1.64 5.85-1.33 6s3.19-4 3.61-4.92l6.15-12.26h.74l6.1 12.19c.42.88 3.31 5.07 3.62 4.93s-.96-5.12-1.36-6zm-8.75-14a1 1 0 010-1.94 1 1 0 010 1.94z"/><rect fill="#498bca" x="11.85" y="26.01" width="23.81" height="1.94" rx=".93" transform="rotate(-180 23.755 26.985)"/><path fill="none" d="M0 0h48v48H0z"/></g></svg>