<svg id="logo_art" data-name="logo art" xmlns="http://www.w3.org/2000/svg" viewBox="0 0 341.22 100"><defs><style>.cls-1{fill:#fff}</style></defs><path class="cls-1" d="M217.52 23.1a27 27 0 1027 27 27 27 0 00-27-27zm0 42.93a15.9 15.9 0 1115.9-15.9A15.9 15.9 0 01217.52 66zM277.43 36.07a14 14 0 00-14 14v25.58h-11.54v-51h11.57v7.87a18.49 18.49 0 0115.07-7.87h3.54v11.42zM160.09 24.62l8.75 35.32 9.64-35.32h11.49l-14.82 51.03h-11.5l-9.08-35.52-9.07 35.52H134l-14.83-51.03h11.5l9.64 35.32 8.75-35.32h11.03zM316.25 48.15A27 27 0 00330 24.61h-11.54A15.44 15.44 0 01303 40h-1.55V0h-11.54v75.65h11.58v-24h1.38a4.59 4.59 0 013.27 1.66l16.43 22.38h13.87z"/><path d="M91.66 23.1c-12.62 0-22.4 8.18-26.37 21.68A111.07 111.07 0 0152 15.52H38.37v35.32a12.65 12.65 0 01-25.29 0V15.52H-.5v35.32a26.23 26.23 0 1052.45 0v-5.91a83.56 83.56 0 009.8 16L53.44 100h13.89l6-28.35a33.52 33.52 0 0018.31 5.52 27 27 0 000-54.07zm0 40.41c-5.48 0-10.61-2.32-15.28-6.09l1.13-5.34v-.21c1-5.67 4.21-15.19 14.1-15.19a13.42 13.42 0 010 26.83z" fill="#6fda44"/><path class="cls-1" d="M334.6 28.41a3.25 3.25 0 01.26-1.28 3.44 3.44 0 011.77-1.75 3.28 3.28 0 012.56 0 3.47 3.47 0 011.05.71 3.15 3.15 0 01.71 1 3.09 3.09 0 01.27 1.28 3.06 3.06 0 01-.27 1.28 3.26 3.26 0 01-.71 1 3.42 3.42 0 01-1.05.69 3.28 3.28 0 01-2.56 0 3.3 3.3 0 01-1.05-.69 3.46 3.46 0 01-.72-1 3.22 3.22 0 01-.26-1.24zm.53 0a2.81 2.81 0 00.21 1.08 3 3 0 00.6.89 2.7 2.7 0 00.88.6A2.81 2.81 0 00339 31a2.7 2.7 0 00.88-.6 3 3 0 00.6-.89 2.81 2.81 0 00.21-1.08 2.77 2.77 0 00-.21-1.08 2.91 2.91 0 00-.6-.89 2.8 2.8 0 00-3.94 0 2.91 2.91 0 00-.6.89 2.77 2.77 0 00-.21 1.06zm1.49-1.87h1.3a2.1 2.1 0 01.51.06 1.25 1.25 0 01.44.19 1.12 1.12 0 01.32.33 1.13 1.13 0 01.11.51 1 1 0 01-.23.66 1.14 1.14 0 01-.62.34l1 1.63h-.81l-.88-1.56h-.47v1.56h-.67zm1.2 1.63a1.42 1.42 0 00.55-.11.43.43 0 00.27-.44.41.41 0 00-.24-.41 1.24 1.24 0 00-.5-.1h-.61v1.06z"/></svg>